<?xml version="1.0" encoding="UTF-8"?>
<svg version="1.1" viewBox="0 0 2048 643" width="1282" height="403" xmlns="http://www.w3.org/2000/svg">
<path transform="translate(468,104)" d="m0 0h13l4 5 1 2v134l-6 8-2 1-16 2-5 1h-8l-5 2h-19v2h-15l-1 3h-15l-4 2h-15l-10 5-1 23v180l-4 5-5 3h-103l-7-3-2-5-1-121-4-3h-5l-1 1h-28v2l-23 1-5 2h-25l-1 2h-24l-5-4-1-24v-86l3-5 7-4 12-1 4-2h6l6-2h9l3-2h9l4-2h9l3-2h8l3-2h12l6-3h6l1-1 7-1 4-3 1-58 8-7 7-1 5-2 4-1 9-1 7-2 5-1 7-1 4-1 1-1 7 1v-2l2-1h8l9-3 4-1 9-1 7-2 5-1 7-1 5-2h6l2-2h8l5-2h6l3-2 10-2 9-1 4-2h5l3-2h9l4-2h7l3-2 7-1 1-1 11-1z" fill="#0298FE"/>
<path transform="translate(929,146)" d="m0 0h78l1 118-1 3h2l2-4 9-9 11-7 16-7 15-3 6-1h12l15 1 15 4 12 6 10 9 7 8 7 15 5 18 2 15 1 148h-80l-1-136-3-12-4-8-8-5-5-1h-15l-12 4-10 9-5 10-2 8-1 22v109h-80v-313z" fill="#FDFDFD"/>
<path transform="translate(618,146)" d="m0 0h282v66l-1 1h-98l-1 247h-82v-247h-99l-1-1z" fill="#FEFEFE"/>
<path transform="translate(1846,236)" d="m0 0h18l21 3 16 5 17 9 13 11 9 10 7 10 8 17 5 17 3 26v22l-1 1-146 1 4 13 7 11 8 6 8 4 13 3h30l20-4 22-8 10-6 2-1 11 30 7 19v5l-14 8-16 7-21 6-17 3-11 1h-22l-19-2-18-4-17-6-17-9-16-13-12-14-10-18-6-19-3-21v-14l1-14 5-21 8-18 10-15 9-10 11-9 14-9 19-8 18-4zm8 51-13 3-9 5-8 8-5 10-4 13v3h82v-7l-3-12-5-9-7-7-10-5-12-2z" fill="#FDFDFD"/>
<path transform="translate(1484,240)" d="m0 0 82 1 4 8 18 45 19 49 8 21 20-49 20-50 10-24h78l-8 20-19 42-16 36-26 58-16 35-13 28h-65l-6-12-13-30-19-43-14-32-19-43-18-41-7-16z" fill="#FDFDFD"/>
<path transform="translate(468,104)" d="m0 0h13l4 5 1 2v134l-6 8-2 1-16 2-5 1h-8l-5 2h-19v2h-15l-1 3h-15l-4 2h-15l-6 2-5 1v-58l-2-8-4-3-8-1-108 18 1-61 8-7 7-1 5-2 4-1 9-1 7-2 5-1 7-1 4-1 1-1 7 1v-2l2-1h8l9-3 4-1 9-1 7-2 5-1 7-1 5-2h6l2-2h8l5-2h6l3-2 10-2 9-1 4-2h5l3-2h9l4-2h7l3-2 7-1 1-1 11-1z" fill="#03D0DE"/>
<path transform="translate(1354,235)" d="m0 0h12l4 58v8l-1 1-49 5-15 4-11 7-7 10-4 14-1 118h-81v-219h77l1 35 6-11 11-12 10-7 14-6 15-3z" fill="#FDFDFD"/>
<path transform="translate(1391,241)" d="m0 0h80v219h-80z" fill="#FEFEFE"/>
<path transform="translate(1394,123)" d="m0 0h72l6 5 1 2v71l-5 6-2 1h-72l-6-5-1-3v-69l3-5z" fill="#0198FE"/>
<path transform="translate(251,149)" d="m0 0h7l-4 2-7 4-2 3-1 54h-1v-56z" fill="#FEFEFE"/>
<path transform="translate(407,116)" d="m0 0 5 1-4 2-18 3 3-3 10-2z" fill="#FEFEFE"/>
<path transform="translate(333,131)" d="m0 0h6l2 2-16 3h-5l2-2 7-1z" fill="#FEFEFE"/>
</svg>
