<?xml version="1.0" encoding="UTF-8"?>
<svg version="1.1" viewBox="0 0 2048 667" width="1264" height="412" xmlns="http://www.w3.org/2000/svg">
<path transform="translate(455,154)" d="m0 0h13l4 4 1 2 1 10v126l-6 8-5 3h-14l-1 3-5-1-2 1h-9l-1 2h-18l-4 2h-9l-4 2h-17v2l-19 1-9 4-1 2-1 206-6 5-4 2h-102l-7-3-3-5-1-123-6-4h-4v2h-29v2h-26v2h-28v3h-24l-6-5v-113l7-6 3-1 12-1 3-2h7l6-2h9l3-2h9l4-2h9l3-2h8l3-2 14-1 5-2h5l1-1 9-2 4-2v-59l7-7 6-1 5-2h5l3-2h8l3-2h8l2-2h10v-2l8-1 5-2h8l3-2 7-1 5-1h6l3-2h6l2-2 10-1 5-2 4-1 9-1 4-1 6-1 4-2h8l3-2h8l2-2 5-1h3l6-2h6l4-2h7l3-2h6l3-2 11-1z" fill="#0197FE"/>
<path transform="translate(922,197)" d="m0 0h80l1 122 9-10 11-8 19-9 22-4h11l16 1 15 4 14 7 11 10 7 11 5 11 5 19 2 15 1 149-80 1-1-1-1-132-2-15-5-10-8-6-5-1h-16l-11 4-8 6-6 9-3 7-1 5-1 14v119l-80 1-1-1z"/>
<path transform="translate(608,197)" d="m0 0h286v52l-1 15h-100l-1 251-82 1-1-1-1-250-100-1z"/>
<path transform="translate(1854,288)" d="m0 0h16l18 2 18 5 16 8 11 8 11 10 12 17 7 15 6 21 2 18v28l-1 1h-148l5 15 5 8v2l4 2 5 4 11 5 15 3h21l24-4 22-8 11-6 3-2 3 8 14 38 2 9-10 6-20 9-21 6-16 3-9 1h-34l-20-3-21-6-21-10-18-14-10-11-7-10-8-17-5-17-2-13v-32l5-23 8-18 10-16 17-17 15-10 17-8 19-5zm5 52-12 3-8 5-7 6-6 10-5 17v2h84l-1-11-4-12-6-9-9-7-9-3-5-1z" fill="#000102"/>
<path transform="translate(1485,293)" d="m0 0h84l5 11 14 35 18 46 12 31v2h2l1-6 15-37 19-47 14-34 1-1h78l-3 9-13 30-19 42-16 36-18 40-16 35-13 28-1 2-65 1-4-6-17-39-36-82-38-86z" fill="#000001"/>
<path transform="translate(455,154)" d="m0 0h13l4 4 1 2 1 10v126l-6 8-5 3h-14l-1 3-5-1-2 1h-9l-1 2h-18l-4 2h-9l-4 2h-17v2l-19 1-5 1h-5l-1-63-4-5-2-1h-11l-72 12-32 5v-59l9-8 5-2 3-2h5l3-2h8l3-2h8l2-2h10v-2l8-1 5-2h8l3-2 7-1 5-1h6l3-2h6l2-2 10-1 5-2 4-1 9-1 4-1 6-1 4-2h8l3-2h8l2-2 5-1h3l6-2h6l4-2h7l3-2h6l3-2 11-1z" fill="#05D1DF"/>
<path transform="translate(1354,287)" d="m0 0h12l4 58v9l-1 1-49 5-12 3-9 4-8 6-6 10-3 11-1 121h-82v-222h78l1 35 5-9 8-10 11-9 15-7 17-4z" fill="#000101"/>
<path transform="translate(1392,293)" d="m0 0h80v222l-79 1-1-1z"/>
<path transform="translate(236,199)" d="m0 0 5 1-4 2-8 7-1 59 8-2 96-16h11l6 5 1 2v63l5-1v2l-6 2-1-1-84 10-24 3h-6l-6-4-2-4-1-11v-45l-15 4-42 7-13 1-9 2-3-2 7-1 3-2h9l4-2h9l3-2h8l3-2 14-1 5-2h5l1-1 9-2 4-2v-59l7-7z" fill="#3D8CF7"/>
<path transform="translate(1395,173)" d="m0 0h72l5 3 3 8v63l-1 7-5 5-3 1h-70l-5-3-3-3-1-4v-68l3-6z" fill="#3E8CF8"/>
<path transform="translate(215,401)" d="m0 0h9l4 2 1 2 1 124 1 4 11 2 99 1-2 2h-102l-7-3-3-5-1-123-6-4h-4v2h-23v-1l14-2z" fill="#72ABF9"/>
<path transform="translate(113,287)" d="m0 0h10l-2 2-11 4-4 3-1 3v58l1 49 5 3 22 1v2h-24l-6-5v-113l7-6z" fill="#7BB0F9"/>
<path transform="translate(225,266)" d="m0 0 2 1-5 5-17 4-37 6-13 1-9 2-3-2 7-1 3-2h9l4-2h9l3-2h8l3-2 14-1 5-2h5l1-1 9-2z" fill="#92BEFA"/>
<path transform="translate(113,287)" d="m0 0h10l-2 2-11 4-4 3-1 3-1 58h-1v-63l7-6z" fill="#3E8CF8"/>
<path transform="translate(215,401)" d="m0 0h9l4 2 1 6-1 36h-1l-1-38-6-4h-4v2h-23v-1l14-2z" fill="#B1D0FB"/>
<path transform="translate(236,199)" d="m0 0 5 1-4 2-8 7-1 57h-1v-59l7-7z" fill="#FEFEFE"/>
<path transform="translate(225,266)" d="m0 0 2 1-5 5-12 3-7-1 3-3h7l1-1 9-2z" fill="#A6C9FB"/>
<path transform="translate(113,287)" d="m0 0h10l-2 2-11 4-5 2-2 1 2-4 5-4z" fill="#93BEFA"/>
<path transform="translate(182,404)" d="m0 0h11v1h-6v2h-25v-1z" fill="#418EF8"/>
<path transform="translate(158,406)" d="m0 0h3v3h-22v-1z" fill="#569AF8"/>
<path transform="translate(227,515)" d="m0 0h1v14h2l1 4 4 1v2l-5-1-3-5z" fill="#B2D1FB"/>
<path transform="translate(153,280)" d="m0 0h8l1 2-11 2-5 1-3-2 7-1z" fill="#DCE9FC"/>
<path transform="translate(139,282)" d="m0 0h3v3l-11 2h-6l3-3h7z" fill="#F8FAFD"/>
<path transform="translate(189,274)" d="m0 0h14v1l-12 2h-5z" fill="#FEFEFE"/>
</svg>
